<svg xmlns="http://www.w3.org/2000/svg" width="18.013" height="17.178" viewBox="0 0 18.013 17.178">
  <g id="not-complete-start" transform="translate(-49.548 -15.692)">
    <path id="Path_14" data-name="Path 14" d="M67.136,21.9,61.3,21.356l-2.318-5.382a.468.468,0,0,0-.859,0l-2.318,5.382-5.835.541a.468.468,0,0,0-.265.817l4.4,3.867L52.821,32.3a.468.468,0,0,0,.695.5l5.038-2.992L63.593,32.8a.468.468,0,0,0,.695-.5L63,26.581l4.4-3.867A.468.468,0,0,0,67.136,21.9Z" transform="translate(0 0)" fill="#ededed"/>
    <path id="Path_20" data-name="Path 20" d="M59.827,17.931l-.843-1.957a.468.468,0,0,0-.859,0l-2.318,5.382-5.834.541a.468.468,0,0,0-.265.817l4.4,3.867L52.821,32.3a.468.468,0,0,0,.695.5l.671-.4A36.3,36.3,0,0,1,59.827,17.931Z" transform="translate(0 0)" fill="#ffc850"/>
  </g>
</svg>
