<svg xmlns="http://www.w3.org/2000/svg" width="38.502" height="29.298" viewBox="0 0 38.502 29.298">
  <path id="Search" d="M263.809,294.944a8.251,8.251,0,1,0-8.251-8.251A8.251,8.251,0,0,0,263.809,294.944Zm0,2.75a11,11,0,1,1,11-11,11,11,0,0,1-11,11Zm6.468-1.914,4.125,7.148a1.375,1.375,0,1,1-2.382,1.375l-4.125-7.148a1.375,1.375,0,1,1,2.382-1.375Zm-32.6-20.087h11a1.375,1.375,0,0,1,0,2.75h-11a1.375,1.375,0,0,1,0-2.75Zm0,11h8.251a1.375,1.375,0,1,1,0,2.75h-8.251a1.375,1.375,0,0,1,0-2.75Zm0,11h13.751a1.375,1.375,0,1,1,0,2.75H237.683a1.375,1.375,0,1,1,0-2.75Z" transform="translate(-236.308 -275.692)" fill="#63c9c6"/>
</svg>
